<mxfile host="Electron" agent="Mozilla/5.0 (X11; Linux x86_64) AppleWebKit/537.36 (KHTML, like Gecko) draw.io/28.0.4 Chrome/138.0.7204.97 Electron/37.2.1 Safari/537.36" version="28.0.4" pages="3">
  <diagram id="RxcxJ1UT-itXMrFT2446" name="archi">
    <mxGraphModel dx="1426" dy="875" grid="1" gridSize="10" guides="1" tooltips="1" connect="1" arrows="1" fold="1" page="1" pageScale="1" pageWidth="850" pageHeight="1100" math="0" shadow="0">
      <root>
        <mxCell id="0" />
        <mxCell id="1" parent="0" />
        <mxCell id="VQEgEFCDF4W8Rk3f5p41-10" value="host-tap-VRF" style="rounded=1;whiteSpace=wrap;html=1;align=center;verticalAlign=top;fillColor=#d5e8d4;strokeColor=#82b366;" parent="1" vertex="1">
          <mxGeometry x="60" y="230" width="140" height="120" as="geometry" />
        </mxCell>
        <mxCell id="68VcOWyj1M_4Vcmoe_yk-2" value="ipv4-VRF:0&lt;br&gt;&lt;br&gt;" style="rounded=1;whiteSpace=wrap;html=1;align=left;verticalAlign=middle;fillColor=#d5e8d4;strokeColor=#82b366;" parent="1" vertex="1">
          <mxGeometry x="60" y="370" width="290" height="190" as="geometry" />
        </mxCell>
        <mxCell id="68VcOWyj1M_4Vcmoe_yk-3" value="PHY&lt;br&gt;hostIP / 24" style="rounded=0;whiteSpace=wrap;html=1;fillColor=#ffe6cc;strokeColor=#d79b00;rotation=0;" parent="1" vertex="1">
          <mxGeometry x="270" y="520" width="72.5" height="60" as="geometry" />
        </mxCell>
        <mxCell id="68VcOWyj1M_4Vcmoe_yk-4" value="Linux (host)" style="rounded=1;whiteSpace=wrap;html=1;verticalAlign=top;fillColor=#dae8fc;strokeColor=#6c8ebf;" parent="1" vertex="1">
          <mxGeometry x="50" y="10" width="160" height="180" as="geometry" />
        </mxCell>
        <mxCell id="68VcOWyj1M_4Vcmoe_yk-5" value="original name (eth0)&lt;br&gt;&lt;br&gt;tap0" style="rounded=0;whiteSpace=wrap;html=1;fillColor=#ffe6cc;strokeColor=#d79b00;" parent="1" vertex="1">
          <mxGeometry x="80.01" y="180" width="100" height="56" as="geometry" />
        </mxCell>
        <mxCell id="68VcOWyj1M_4Vcmoe_yk-6" value="calico-pods-ip4" style="rounded=1;whiteSpace=wrap;html=1;align=center;verticalAlign=top;fillColor=#d5e8d4;strokeColor=#82b366;" parent="1" vertex="1">
          <mxGeometry x="210" y="230" width="120" height="120" as="geometry" />
        </mxCell>
        <mxCell id="68VcOWyj1M_4Vcmoe_yk-7" value="punt-table-ip4" style="rounded=1;whiteSpace=wrap;html=1;align=center;verticalAlign=bottom;fillColor=#d5e8d4;strokeColor=#82b366;" parent="1" vertex="1">
          <mxGeometry x="358.25" y="460" width="161.75" height="100" as="geometry" />
        </mxCell>
        <mxCell id="68VcOWyj1M_4Vcmoe_yk-14" value="" style="curved=1;endArrow=classic;html=1;exitX=0.5;exitY=1;exitDx=0;exitDy=0;entryX=0;entryY=0.5;entryDx=0;entryDy=0;" parent="1" source="68VcOWyj1M_4Vcmoe_yk-54" target="68VcOWyj1M_4Vcmoe_yk-53" edge="1">
          <mxGeometry width="50" height="50" relative="1" as="geometry">
            <mxPoint x="490" y="585.9749999999999" as="sourcePoint" />
            <mxPoint x="490" y="731.75" as="targetPoint" />
            <Array as="points">
              <mxPoint x="180" y="380" />
            </Array>
          </mxGeometry>
        </mxCell>
        <mxCell id="68VcOWyj1M_4Vcmoe_yk-15" value="0.0.0.0/0" style="edgeLabel;html=1;align=center;verticalAlign=middle;resizable=0;points=[];labelBackgroundColor=none;rotation=-45;" parent="68VcOWyj1M_4Vcmoe_yk-14" vertex="1" connectable="0">
          <mxGeometry x="0.1952" y="-3" relative="1" as="geometry">
            <mxPoint x="58" y="-59" as="offset" />
          </mxGeometry>
        </mxCell>
        <mxCell id="68VcOWyj1M_4Vcmoe_yk-20" value="" style="curved=1;endArrow=classic;html=1;entryX=0;entryY=0.5;entryDx=0;entryDy=0;exitX=1;exitY=0.5;exitDx=0;exitDy=0;" parent="1" source="68VcOWyj1M_4Vcmoe_yk-55" target="68VcOWyj1M_4Vcmoe_yk-5" edge="1">
          <mxGeometry width="50" height="50" relative="1" as="geometry">
            <mxPoint x="740" y="719.5" as="sourcePoint" />
            <mxPoint x="760" y="477" as="targetPoint" />
            <Array as="points">
              <mxPoint x="610" y="500" />
              <mxPoint x="620" y="560" />
              <mxPoint x="530" y="610" />
              <mxPoint x="80" y="610" />
              <mxPoint x="20" y="550" />
              <mxPoint x="20" y="200" />
            </Array>
          </mxGeometry>
        </mxCell>
        <mxCell id="68VcOWyj1M_4Vcmoe_yk-41" value="tunnels&lt;br&gt;(ipip to other node)" style="rounded=0;whiteSpace=wrap;html=1;fillColor=#ffe6cc;strokeColor=#d79b00;" parent="1" vertex="1">
          <mxGeometry x="80.00999999999999" y="520" width="110" height="60" as="geometry" />
        </mxCell>
        <mxCell id="68VcOWyj1M_4Vcmoe_yk-42" value="" style="curved=1;endArrow=classic;html=1;entryX=0.5;entryY=0;entryDx=0;entryDy=0;exitX=0.5;exitY=1;exitDx=0;exitDy=0;" parent="1" source="68VcOWyj1M_4Vcmoe_yk-54" target="68VcOWyj1M_4Vcmoe_yk-41" edge="1">
          <mxGeometry width="50" height="50" relative="1" as="geometry">
            <mxPoint x="430" y="660.9000000000001" as="sourcePoint" />
            <mxPoint x="165" y="456" as="targetPoint" />
            <Array as="points">
              <mxPoint x="300" y="360" />
              <mxPoint x="150" y="470" />
            </Array>
          </mxGeometry>
        </mxCell>
        <mxCell id="68VcOWyj1M_4Vcmoe_yk-43" value="OtherNodes/24" style="edgeLabel;html=1;align=center;verticalAlign=middle;resizable=0;points=[];labelBackgroundColor=none;rotation=-90;" parent="68VcOWyj1M_4Vcmoe_yk-42" vertex="1" connectable="0">
          <mxGeometry x="0.0667" relative="1" as="geometry">
            <mxPoint x="70" y="-68" as="offset" />
          </mxGeometry>
        </mxCell>
        <mxCell id="68VcOWyj1M_4Vcmoe_yk-53" value="FIB" style="rhombus;whiteSpace=wrap;html=1;" parent="1" vertex="1">
          <mxGeometry x="230" y="430" width="48.25" height="50" as="geometry" />
        </mxCell>
        <mxCell id="68VcOWyj1M_4Vcmoe_yk-54" value="FIB" style="rhombus;whiteSpace=wrap;html=1;" parent="1" vertex="1">
          <mxGeometry x="245.88" y="265" width="48.25" height="50" as="geometry" />
        </mxCell>
        <mxCell id="68VcOWyj1M_4Vcmoe_yk-55" value="FIB" style="rhombus;whiteSpace=wrap;html=1;" parent="1" vertex="1">
          <mxGeometry x="454.64" y="480" width="48.25" height="50" as="geometry" />
        </mxCell>
        <mxCell id="68VcOWyj1M_4Vcmoe_yk-60" value="" style="curved=1;endArrow=classic;html=1;exitX=1;exitY=0.5;exitDx=0;exitDy=0;entryX=0.384;entryY=-0.022;entryDx=0;entryDy=0;entryPerimeter=0;" parent="1" source="68VcOWyj1M_4Vcmoe_yk-53" target="68VcOWyj1M_4Vcmoe_yk-3" edge="1">
          <mxGeometry width="50" height="50" relative="1" as="geometry">
            <mxPoint x="290.00500000000034" y="230" as="sourcePoint" />
            <mxPoint x="306" y="306.8800000000001" as="targetPoint" />
            <Array as="points">
              <mxPoint x="330" y="470" />
            </Array>
          </mxGeometry>
        </mxCell>
        <mxCell id="68VcOWyj1M_4Vcmoe_yk-61" value="0.0.0.0/0" style="edgeLabel;html=1;align=center;verticalAlign=middle;resizable=0;points=[];labelBackgroundColor=none;rotation=45;" parent="68VcOWyj1M_4Vcmoe_yk-60" vertex="1" connectable="0">
          <mxGeometry x="0.1952" y="-3" relative="1" as="geometry">
            <mxPoint x="-26" y="1" as="offset" />
          </mxGeometry>
        </mxCell>
        <mxCell id="VQEgEFCDF4W8Rk3f5p41-7" value="FIB" style="rhombus;whiteSpace=wrap;html=1;" parent="1" vertex="1">
          <mxGeometry x="105.88" y="48" width="48.25" height="50" as="geometry" />
        </mxCell>
        <mxCell id="VQEgEFCDF4W8Rk3f5p41-8" value="" style="curved=1;endArrow=classic;html=1;exitX=0.5;exitY=1;exitDx=0;exitDy=0;" parent="1" source="VQEgEFCDF4W8Rk3f5p41-7" target="68VcOWyj1M_4Vcmoe_yk-5" edge="1">
          <mxGeometry width="50" height="50" relative="1" as="geometry">
            <mxPoint x="19.995000000000346" y="338.31" as="sourcePoint" />
            <mxPoint x="35.99000000000001" y="415.1900000000001" as="targetPoint" />
            <Array as="points" />
          </mxGeometry>
        </mxCell>
        <mxCell id="VQEgEFCDF4W8Rk3f5p41-9" value="existing routes, &lt;br&gt;serviceCIDR, podCIDR &lt;div&gt;via NextHop&lt;/div&gt;" style="edgeLabel;html=1;align=center;verticalAlign=middle;resizable=0;points=[];labelBackgroundColor=none;" parent="VQEgEFCDF4W8Rk3f5p41-8" vertex="1" connectable="0">
          <mxGeometry x="0.1952" y="-3" relative="1" as="geometry">
            <mxPoint x="1" y="-10" as="offset" />
          </mxGeometry>
        </mxCell>
        <mxCell id="VQEgEFCDF4W8Rk3f5p41-11" value="" style="curved=1;endArrow=classic;html=1;entryX=0;entryY=0.5;entryDx=0;entryDy=0;exitX=0.5;exitY=1;exitDx=0;exitDy=0;" parent="1" source="VQEgEFCDF4W8Rk3f5p41-13" target="68VcOWyj1M_4Vcmoe_yk-53" edge="1">
          <mxGeometry width="50" height="50" relative="1" as="geometry">
            <mxPoint x="288.25" y="547.8800000000001" as="sourcePoint" />
            <mxPoint x="277.84000000000015" y="648.6799999999998" as="targetPoint" />
            <Array as="points">
              <mxPoint x="170" y="350" />
            </Array>
          </mxGeometry>
        </mxCell>
        <mxCell id="VQEgEFCDF4W8Rk3f5p41-12" value="0.0.0.0/0" style="edgeLabel;html=1;align=center;verticalAlign=middle;resizable=0;points=[];labelBackgroundColor=none;rotation=45;" parent="VQEgEFCDF4W8Rk3f5p41-11" vertex="1" connectable="0">
          <mxGeometry x="0.1952" y="-3" relative="1" as="geometry">
            <mxPoint x="-39" y="-66" as="offset" />
          </mxGeometry>
        </mxCell>
        <mxCell id="VQEgEFCDF4W8Rk3f5p41-13" value="FIB" style="rhombus;whiteSpace=wrap;html=1;" parent="1" vertex="1">
          <mxGeometry x="105.87" y="265" width="48.25" height="50" as="geometry" />
        </mxCell>
        <mxCell id="VQEgEFCDF4W8Rk3f5p41-14" value="" style="curved=1;endArrow=classic;html=1;entryX=0.25;entryY=0;entryDx=0;entryDy=0;exitX=0.5;exitY=1;exitDx=0;exitDy=0;" parent="1" source="VQEgEFCDF4W8Rk3f5p41-13" target="68VcOWyj1M_4Vcmoe_yk-3" edge="1">
          <mxGeometry width="50" height="50" relative="1" as="geometry">
            <mxPoint x="10.250000000000227" y="485" as="sourcePoint" />
            <mxPoint x="59.42000000000007" y="507.74" as="targetPoint" />
            <Array as="points">
              <mxPoint x="30" y="480" />
            </Array>
          </mxGeometry>
        </mxCell>
        <mxCell id="VQEgEFCDF4W8Rk3f5p41-15" value="broadcast" style="edgeLabel;html=1;align=center;verticalAlign=middle;resizable=0;points=[];labelBackgroundColor=none;" parent="VQEgEFCDF4W8Rk3f5p41-14" vertex="1" connectable="0">
          <mxGeometry x="0.1952" y="-3" relative="1" as="geometry">
            <mxPoint x="-7" y="-154" as="offset" />
          </mxGeometry>
        </mxCell>
        <mxCell id="VQEgEFCDF4W8Rk3f5p41-22" value="Linux (pod)" style="rounded=1;whiteSpace=wrap;html=1;verticalAlign=top;fillColor=#dae8fc;strokeColor=#6c8ebf;" parent="1" vertex="1">
          <mxGeometry x="644.64" y="13" width="145.36" height="120" as="geometry" />
        </mxCell>
        <mxCell id="VQEgEFCDF4W8Rk3f5p41-23" value="FIB" style="rhombus;whiteSpace=wrap;html=1;" parent="1" vertex="1">
          <mxGeometry x="728.93" y="32.629999999999995" width="48.25" height="50" as="geometry" />
        </mxCell>
        <mxCell id="VQEgEFCDF4W8Rk3f5p41-24" value="" style="curved=1;endArrow=classic;html=1;exitX=0;exitY=0.5;exitDx=0;exitDy=0;entryX=1;entryY=0.5;entryDx=0;entryDy=0;" parent="1" source="VQEgEFCDF4W8Rk3f5p41-23" edge="1">
          <mxGeometry width="50" height="50" relative="1" as="geometry">
            <mxPoint x="234.6450000000001" y="-127" as="sourcePoint" />
            <mxPoint x="664.64" y="57.62999999999988" as="targetPoint" />
            <Array as="points" />
          </mxGeometry>
        </mxCell>
        <mxCell id="VQEgEFCDF4W8Rk3f5p41-25" value="0.0.0.0/0" style="edgeLabel;html=1;align=center;verticalAlign=middle;resizable=0;points=[];labelBackgroundColor=none;" parent="VQEgEFCDF4W8Rk3f5p41-24" vertex="1" connectable="0">
          <mxGeometry x="0.1952" y="-3" relative="1" as="geometry">
            <mxPoint x="12" y="-7" as="offset" />
          </mxGeometry>
        </mxCell>
        <mxCell id="_3ZUaYj1xcl_fgtxjZGN-1" value="Linux (pod)" style="rounded=1;whiteSpace=wrap;html=1;verticalAlign=top;fillColor=#dae8fc;strokeColor=#6c8ebf;" parent="1" vertex="1">
          <mxGeometry x="644.64" y="150" width="145.36" height="133.33" as="geometry" />
        </mxCell>
        <mxCell id="_3ZUaYj1xcl_fgtxjZGN-2" value="FIB" style="rhombus;whiteSpace=wrap;html=1;" parent="1" vertex="1">
          <mxGeometry x="728.93" y="192" width="48.25" height="50" as="geometry" />
        </mxCell>
        <mxCell id="_3ZUaYj1xcl_fgtxjZGN-3" value="" style="curved=1;endArrow=classic;html=1;exitX=0;exitY=0.5;exitDx=0;exitDy=0;entryX=1;entryY=0.5;entryDx=0;entryDy=0;" parent="1" source="_3ZUaYj1xcl_fgtxjZGN-2" target="_3ZUaYj1xcl_fgtxjZGN-6" edge="1">
          <mxGeometry width="50" height="50" relative="1" as="geometry">
            <mxPoint x="234.6450000000001" y="23.330000000000013" as="sourcePoint" />
            <mxPoint x="664.6399999999999" y="207.9599999999999" as="targetPoint" />
            <Array as="points" />
          </mxGeometry>
        </mxCell>
        <mxCell id="_3ZUaYj1xcl_fgtxjZGN-4" value="0.0.0.0/0" style="edgeLabel;html=1;align=center;verticalAlign=middle;resizable=0;points=[];labelBackgroundColor=none;" parent="_3ZUaYj1xcl_fgtxjZGN-3" vertex="1" connectable="0">
          <mxGeometry x="0.1952" y="-3" relative="1" as="geometry">
            <mxPoint x="12" y="-7" as="offset" />
          </mxGeometry>
        </mxCell>
        <mxCell id="_3ZUaYj1xcl_fgtxjZGN-5" value="&lt;div&gt;Pod.b VRF (memif+tun)&lt;br&gt;&lt;/div&gt;" style="rounded=1;whiteSpace=wrap;html=1;verticalAlign=top;align=center;fillColor=#d5e8d4;strokeColor=#82b366;" parent="1" vertex="1">
          <mxGeometry x="454.64" y="150" width="160" height="133.33" as="geometry" />
        </mxCell>
        <mxCell id="_3ZUaYj1xcl_fgtxjZGN-6" value="tun" style="rounded=0;whiteSpace=wrap;html=1;fillColor=#ffe6cc;strokeColor=#d79b00;" parent="1" vertex="1">
          <mxGeometry x="584.93" y="204" width="80" height="26" as="geometry" />
        </mxCell>
        <mxCell id="_3ZUaYj1xcl_fgtxjZGN-7" value="&lt;div&gt;loop&lt;br&gt;pod / 32&lt;br&gt;&lt;/div&gt;" style="rounded=0;whiteSpace=wrap;html=1;fillColor=#f5f5f5;strokeColor=#666666;fontColor=#333333;" parent="1" vertex="1">
          <mxGeometry x="584.64" y="239" width="80" height="26" as="geometry" />
        </mxCell>
        <mxCell id="0FSiT19gJ2uUKFr3Tybx-1" style="edgeStyle=orthogonalEdgeStyle;rounded=0;orthogonalLoop=1;jettySize=auto;html=1;exitX=1;exitY=0.5;exitDx=0;exitDy=0;entryX=0.5;entryY=1;entryDx=0;entryDy=0;" parent="1" source="_3ZUaYj1xcl_fgtxjZGN-9" target="_3ZUaYj1xcl_fgtxjZGN-24" edge="1">
          <mxGeometry relative="1" as="geometry" />
        </mxCell>
        <mxCell id="_3ZUaYj1xcl_fgtxjZGN-9" value="FIB" style="rhombus;whiteSpace=wrap;html=1;" parent="1" vertex="1">
          <mxGeometry x="474.93" y="227" width="48.25" height="50" as="geometry" />
        </mxCell>
        <mxCell id="_3ZUaYj1xcl_fgtxjZGN-10" value="Linux (pod)" style="rounded=1;whiteSpace=wrap;html=1;verticalAlign=top;fillColor=#dae8fc;strokeColor=#6c8ebf;" parent="1" vertex="1">
          <mxGeometry x="644.93" y="300" width="145.07" height="120" as="geometry" />
        </mxCell>
        <mxCell id="_3ZUaYj1xcl_fgtxjZGN-11" value="FIB" style="rhombus;whiteSpace=wrap;html=1;" parent="1" vertex="1">
          <mxGeometry x="728.93" y="320" width="48.25" height="50" as="geometry" />
        </mxCell>
        <mxCell id="_3ZUaYj1xcl_fgtxjZGN-12" value="" style="curved=1;endArrow=classic;html=1;exitX=0;exitY=0.5;exitDx=0;exitDy=0;entryX=1;entryY=0.5;entryDx=0;entryDy=0;" parent="1" source="_3ZUaYj1xcl_fgtxjZGN-11" target="_3ZUaYj1xcl_fgtxjZGN-15" edge="1">
          <mxGeometry width="50" height="50" relative="1" as="geometry">
            <mxPoint x="234.9350000000001" y="160" as="sourcePoint" />
            <mxPoint x="664.9299999999998" y="344.6299999999999" as="targetPoint" />
            <Array as="points" />
          </mxGeometry>
        </mxCell>
        <mxCell id="_3ZUaYj1xcl_fgtxjZGN-13" value="0.0.0.0/0" style="edgeLabel;html=1;align=center;verticalAlign=middle;resizable=0;points=[];labelBackgroundColor=none;" parent="_3ZUaYj1xcl_fgtxjZGN-12" vertex="1" connectable="0">
          <mxGeometry x="0.1952" y="-3" relative="1" as="geometry">
            <mxPoint x="12" y="-7" as="offset" />
          </mxGeometry>
        </mxCell>
        <mxCell id="_3ZUaYj1xcl_fgtxjZGN-14" value="&lt;div&gt;Pod.c VRF (VCL+tun)&lt;br&gt;&lt;/div&gt;" style="rounded=1;whiteSpace=wrap;html=1;verticalAlign=top;align=center;fillColor=#d5e8d4;strokeColor=#82b366;" parent="1" vertex="1">
          <mxGeometry x="454.93" y="300" width="160" height="120" as="geometry" />
        </mxCell>
        <mxCell id="_3ZUaYj1xcl_fgtxjZGN-15" value="tun" style="rounded=0;whiteSpace=wrap;html=1;fillColor=#ffe6cc;strokeColor=#d79b00;" parent="1" vertex="1">
          <mxGeometry x="584.93" y="353.75" width="80" height="26" as="geometry" />
        </mxCell>
        <mxCell id="_3ZUaYj1xcl_fgtxjZGN-16" value="&lt;div&gt;loop&lt;br&gt;pod.c/32&lt;br&gt;&lt;/div&gt;" style="rounded=0;whiteSpace=wrap;html=1;fillColor=#ffe6cc;strokeColor=#d79b00;" parent="1" vertex="1">
          <mxGeometry x="584.64" y="320" width="80" height="26" as="geometry" />
        </mxCell>
        <mxCell id="_3ZUaYj1xcl_fgtxjZGN-17" value="0.0.0.0/0" style="edgeLabel;html=1;align=center;verticalAlign=middle;resizable=0;points=[];labelBackgroundColor=none;" parent="1" vertex="1" connectable="0">
          <mxGeometry x="555.9342212794402" y="520.0041966985368" as="geometry" />
        </mxCell>
        <mxCell id="jTiHeiNjEd7fPoEiczlf-1" style="edgeStyle=orthogonalEdgeStyle;rounded=0;orthogonalLoop=1;jettySize=auto;html=1;exitX=1;exitY=0.5;exitDx=0;exitDy=0;entryX=0;entryY=0.5;entryDx=0;entryDy=0;fillColor=#dae8fc;strokeColor=#6c8ebf;" parent="1" source="_3ZUaYj1xcl_fgtxjZGN-18" target="_3ZUaYj1xcl_fgtxjZGN-16" edge="1">
          <mxGeometry relative="1" as="geometry" />
        </mxCell>
        <mxCell id="_3ZUaYj1xcl_fgtxjZGN-18" value="FIB" style="rhombus;whiteSpace=wrap;html=1;" parent="1" vertex="1">
          <mxGeometry x="474.93" y="330" width="48.25" height="50" as="geometry" />
        </mxCell>
        <mxCell id="_3ZUaYj1xcl_fgtxjZGN-19" value="" style="curved=1;endArrow=classic;html=1;entryX=0;entryY=0.5;entryDx=0;entryDy=0;startArrow=none;exitX=1;exitY=0.5;exitDx=0;exitDy=0;fillColor=#dae8fc;strokeColor=#6c8ebf;" parent="1" source="_3ZUaYj1xcl_fgtxjZGN-24" target="_3ZUaYj1xcl_fgtxjZGN-6" edge="1">
          <mxGeometry width="50" height="50" relative="1" as="geometry">
            <mxPoint x="530" y="150" as="sourcePoint" />
            <mxPoint x="594.6399999999999" y="67.63" as="targetPoint" />
            <Array as="points" />
          </mxGeometry>
        </mxCell>
        <mxCell id="_3ZUaYj1xcl_fgtxjZGN-20" value="pod.c/32" style="edgeLabel;html=1;align=center;verticalAlign=middle;resizable=0;points=[];labelBackgroundColor=none;" parent="_3ZUaYj1xcl_fgtxjZGN-19" vertex="1" connectable="0">
          <mxGeometry x="0.0667" relative="1" as="geometry">
            <mxPoint x="-201" y="213" as="offset" />
          </mxGeometry>
        </mxCell>
        <mxCell id="_3ZUaYj1xcl_fgtxjZGN-23" value="memif" style="rounded=0;whiteSpace=wrap;html=1;fillColor=#ffe6cc;strokeColor=#d79b00;" parent="1" vertex="1">
          <mxGeometry x="584.64" y="173.33" width="80" height="26" as="geometry" />
        </mxCell>
        <mxCell id="_3ZUaYj1xcl_fgtxjZGN-25" value="" style="curved=1;endArrow=classic;html=1;entryX=0;entryY=0.5;entryDx=0;entryDy=0;exitX=1;exitY=0.5;exitDx=0;exitDy=0;endFill=1;fillColor=#dae8fc;strokeColor=#6c8ebf;" parent="1" source="68VcOWyj1M_4Vcmoe_yk-53" target="_3ZUaYj1xcl_fgtxjZGN-9" edge="1">
          <mxGeometry width="50" height="50" relative="1" as="geometry">
            <mxPoint x="278.2500000000002" y="455" as="sourcePoint" />
            <mxPoint x="524.9299999999998" y="217" as="targetPoint" />
            <Array as="points">
              <mxPoint x="430" y="380" />
              <mxPoint x="420" y="300" />
              <mxPoint x="440" y="265" />
            </Array>
          </mxGeometry>
        </mxCell>
        <mxCell id="_3ZUaYj1xcl_fgtxjZGN-24" value="pbl" style="ellipse;whiteSpace=wrap;html=1;aspect=fixed;fillColor=#f8cecc;strokeColor=#b85450;" parent="1" vertex="1">
          <mxGeometry x="523.18" y="180" width="40.5" height="40.5" as="geometry" />
        </mxCell>
        <mxCell id="_3ZUaYj1xcl_fgtxjZGN-27" value="" style="curved=1;endArrow=classic;html=1;entryX=0;entryY=0.5;entryDx=0;entryDy=0;startArrow=none;exitX=1;exitY=0.5;exitDx=0;exitDy=0;fillColor=#dae8fc;strokeColor=#6c8ebf;" parent="1" source="_3ZUaYj1xcl_fgtxjZGN-24" target="_3ZUaYj1xcl_fgtxjZGN-23" edge="1">
          <mxGeometry width="50" height="50" relative="1" as="geometry">
            <mxPoint x="532.8899999999985" y="205" as="sourcePoint" />
            <mxPoint x="594.9299999999998" y="227" as="targetPoint" />
            <Array as="points" />
          </mxGeometry>
        </mxCell>
        <mxCell id="_3ZUaYj1xcl_fgtxjZGN-28" value="pod.b/32" style="edgeLabel;html=1;align=center;verticalAlign=middle;resizable=0;points=[];labelBackgroundColor=none;" parent="_3ZUaYj1xcl_fgtxjZGN-27" vertex="1" connectable="0">
          <mxGeometry x="0.0667" relative="1" as="geometry">
            <mxPoint x="-201" y="212" as="offset" />
          </mxGeometry>
        </mxCell>
        <mxCell id="_3ZUaYj1xcl_fgtxjZGN-29" value="" style="curved=1;endArrow=classic;html=1;entryX=0;entryY=0.5;entryDx=0;entryDy=0;exitX=1;exitY=0.5;exitDx=0;exitDy=0;endFill=1;fillColor=#dae8fc;strokeColor=#6c8ebf;" parent="1" source="68VcOWyj1M_4Vcmoe_yk-53" target="_3ZUaYj1xcl_fgtxjZGN-18" edge="1">
          <mxGeometry width="50" height="50" relative="1" as="geometry">
            <mxPoint x="288.2500000000002" y="465" as="sourcePoint" />
            <mxPoint x="422.890000000001" y="205" as="targetPoint" />
            <Array as="points">
              <mxPoint x="410" y="410" />
            </Array>
          </mxGeometry>
        </mxCell>
        <mxCell id="_3ZUaYj1xcl_fgtxjZGN-32" value="" style="curved=1;endArrow=classic;html=1;entryX=0.5;entryY=1;entryDx=0;entryDy=0;exitX=1;exitY=0.5;exitDx=0;exitDy=0;endFill=1;fillColor=#dae8fc;strokeColor=#6c8ebf;" parent="1" source="68VcOWyj1M_4Vcmoe_yk-55" target="jTiHeiNjEd7fPoEiczlf-2" edge="1">
          <mxGeometry width="50" height="50" relative="1" as="geometry">
            <mxPoint x="288.2500000000002" y="465" as="sourcePoint" />
            <mxPoint x="424.93000000000006" y="365.0000000000001" as="targetPoint" />
            <Array as="points">
              <mxPoint x="550" y="470" />
            </Array>
          </mxGeometry>
        </mxCell>
        <mxCell id="_3ZUaYj1xcl_fgtxjZGN-33" value="pod.c/32" style="edgeLabel;html=1;align=center;verticalAlign=middle;resizable=0;points=[];labelBackgroundColor=none;" parent="_3ZUaYj1xcl_fgtxjZGN-32" vertex="1" connectable="0">
          <mxGeometry x="-0.724" y="7" relative="1" as="geometry">
            <mxPoint x="38" y="-24" as="offset" />
          </mxGeometry>
        </mxCell>
        <mxCell id="_3ZUaYj1xcl_fgtxjZGN-35" value="" style="curved=1;endArrow=classic;html=1;entryX=1;entryY=0.5;entryDx=0;entryDy=0;exitX=0;exitY=0.5;exitDx=0;exitDy=0;" parent="1" source="_3ZUaYj1xcl_fgtxjZGN-9" target="68VcOWyj1M_4Vcmoe_yk-54" edge="1">
          <mxGeometry width="50" height="50" relative="1" as="geometry">
            <mxPoint x="424.6399999999999" y="78" as="sourcePoint" />
            <mxPoint x="304.1300000000001" y="300.0000000000001" as="targetPoint" />
            <Array as="points">
              <mxPoint x="360" y="260" />
            </Array>
          </mxGeometry>
        </mxCell>
        <mxCell id="_3ZUaYj1xcl_fgtxjZGN-36" value="0.0.0.0/0" style="edgeLabel;html=1;align=center;verticalAlign=middle;resizable=0;points=[];labelBackgroundColor=none;" parent="_3ZUaYj1xcl_fgtxjZGN-35" vertex="1" connectable="0">
          <mxGeometry x="-0.3003" y="-15" relative="1" as="geometry">
            <mxPoint x="40" as="offset" />
          </mxGeometry>
        </mxCell>
        <mxCell id="_3ZUaYj1xcl_fgtxjZGN-37" value="" style="curved=1;endArrow=classic;html=1;entryX=1;entryY=0.5;entryDx=0;entryDy=0;exitX=0;exitY=0.5;exitDx=0;exitDy=0;" parent="1" source="_3ZUaYj1xcl_fgtxjZGN-18" target="68VcOWyj1M_4Vcmoe_yk-54" edge="1">
          <mxGeometry width="50" height="50" relative="1" as="geometry">
            <mxPoint x="411.75" y="262" as="sourcePoint" />
            <mxPoint x="304.1300000000001" y="300.0000000000001" as="targetPoint" />
            <Array as="points">
              <mxPoint x="370" y="270" />
            </Array>
          </mxGeometry>
        </mxCell>
        <mxCell id="_3ZUaYj1xcl_fgtxjZGN-38" value="0.0.0.0/0" style="edgeLabel;html=1;align=center;verticalAlign=middle;resizable=0;points=[];labelBackgroundColor=none;rotation=30;" parent="_3ZUaYj1xcl_fgtxjZGN-37" vertex="1" connectable="0">
          <mxGeometry x="-0.3003" y="-15" relative="1" as="geometry">
            <mxPoint x="35" y="35" as="offset" />
          </mxGeometry>
        </mxCell>
        <mxCell id="_3ZUaYj1xcl_fgtxjZGN-30" value="" style="curved=1;endArrow=classic;html=1;entryX=0;entryY=0.5;entryDx=0;entryDy=0;exitX=0.5;exitY=1;exitDx=0;exitDy=0;fillColor=#e1d5e7;strokeColor=#9673a6;strokeWidth=1;" parent="1" source="_3ZUaYj1xcl_fgtxjZGN-18" target="68VcOWyj1M_4Vcmoe_yk-55" edge="1">
          <mxGeometry width="50" height="50" relative="1" as="geometry">
            <mxPoint x="288.2500000000002" y="465" as="sourcePoint" />
            <mxPoint x="460" y="535" as="targetPoint" />
            <Array as="points">
              <mxPoint x="400" y="430" />
              <mxPoint x="390" y="500" />
            </Array>
          </mxGeometry>
        </mxCell>
        <mxCell id="_3ZUaYj1xcl_fgtxjZGN-31" value="&lt;div&gt;punt&lt;/div&gt;" style="edgeLabel;html=1;align=center;verticalAlign=middle;resizable=0;points=[];labelBackgroundColor=none;rotation=-30;" parent="_3ZUaYj1xcl_fgtxjZGN-30" vertex="1" connectable="0">
          <mxGeometry x="-0.2196" y="-29" relative="1" as="geometry">
            <mxPoint x="87" y="-4" as="offset" />
          </mxGeometry>
        </mxCell>
        <mxCell id="68VcOWyj1M_4Vcmoe_yk-16" value="" style="curved=1;endArrow=classic;html=1;entryX=0;entryY=0.5;entryDx=0;entryDy=0;exitX=1;exitY=0.5;exitDx=0;exitDy=0;fillColor=#e1d5e7;strokeColor=#9673a6;strokeWidth=1;" parent="1" source="68VcOWyj1M_4Vcmoe_yk-53" target="68VcOWyj1M_4Vcmoe_yk-55" edge="1">
          <mxGeometry width="50" height="50" relative="1" as="geometry">
            <mxPoint x="604" y="567.625" as="sourcePoint" />
            <mxPoint x="639.04" y="882.9965" as="targetPoint" />
            <Array as="points">
              <mxPoint x="370" y="450" />
              <mxPoint x="360" y="520" />
            </Array>
          </mxGeometry>
        </mxCell>
        <mxCell id="68VcOWyj1M_4Vcmoe_yk-17" value="&lt;div&gt;punt&lt;/div&gt;" style="edgeLabel;html=1;align=center;verticalAlign=middle;resizable=0;points=[];labelBackgroundColor=none;" parent="68VcOWyj1M_4Vcmoe_yk-16" vertex="1" connectable="0">
          <mxGeometry x="-0.2196" y="-29" relative="1" as="geometry">
            <mxPoint x="-10" y="10" as="offset" />
          </mxGeometry>
        </mxCell>
        <mxCell id="jTiHeiNjEd7fPoEiczlf-4" style="edgeStyle=orthogonalEdgeStyle;rounded=0;orthogonalLoop=1;jettySize=auto;html=1;exitX=1;exitY=0.5;exitDx=0;exitDy=0;entryX=0;entryY=0.5;entryDx=0;entryDy=0;fillColor=#dae8fc;strokeColor=#6c8ebf;" parent="1" source="jTiHeiNjEd7fPoEiczlf-2" target="jTiHeiNjEd7fPoEiczlf-3" edge="1">
          <mxGeometry relative="1" as="geometry">
            <Array as="points">
              <mxPoint x="555" y="390" />
              <mxPoint x="555" y="398" />
            </Array>
          </mxGeometry>
        </mxCell>
        <mxCell id="jTiHeiNjEd7fPoEiczlf-5" style="edgeStyle=orthogonalEdgeStyle;rounded=0;orthogonalLoop=1;jettySize=auto;html=1;exitX=1;exitY=0;exitDx=0;exitDy=0;entryX=0;entryY=0.5;entryDx=0;entryDy=0;fillColor=#dae8fc;strokeColor=#6c8ebf;" parent="1" source="jTiHeiNjEd7fPoEiczlf-2" target="_3ZUaYj1xcl_fgtxjZGN-15" edge="1">
          <mxGeometry relative="1" as="geometry">
            <Array as="points">
              <mxPoint x="549" y="367" />
            </Array>
          </mxGeometry>
        </mxCell>
        <mxCell id="jTiHeiNjEd7fPoEiczlf-2" value="pbl" style="ellipse;whiteSpace=wrap;html=1;aspect=fixed;fillColor=#f8cecc;strokeColor=#b85450;" parent="1" vertex="1">
          <mxGeometry x="514.39" y="370" width="40.5" height="40.5" as="geometry" />
        </mxCell>
        <mxCell id="jTiHeiNjEd7fPoEiczlf-3" value="memif" style="rounded=0;whiteSpace=wrap;html=1;fillColor=#ffe6cc;strokeColor=#d79b00;" parent="1" vertex="1">
          <mxGeometry x="584.93" y="384.5" width="80" height="26" as="geometry" />
        </mxCell>
        <mxCell id="0FSiT19gJ2uUKFr3Tybx-3" value="pod.b/32" style="edgeLabel;html=1;align=center;verticalAlign=middle;resizable=0;points=[];labelBackgroundColor=none;" parent="1" connectable="0" vertex="1">
          <mxGeometry x="543.5093549778173" y="240.057985625416" as="geometry" />
        </mxCell>
        <object label="tun&#xa;" id="EYtOcgFtx-9UCVevLSyA-1">
          <mxCell parent="0" />
        </object>
        <mxCell id="EYtOcgFtx-9UCVevLSyA-2" value="&lt;div&gt;Pod.a VRF (tun or memif)&lt;br&gt;&lt;/div&gt;" style="rounded=1;whiteSpace=wrap;html=1;verticalAlign=top;align=center;fillColor=#d5e8d4;strokeColor=#82b366;" parent="EYtOcgFtx-9UCVevLSyA-1" vertex="1">
          <mxGeometry x="454.64" y="13" width="160" height="120" as="geometry" />
        </mxCell>
        <mxCell id="EYtOcgFtx-9UCVevLSyA-3" value="" style="curved=1;endArrow=classic;html=1;entryX=0;entryY=0.5;entryDx=0;entryDy=0;exitX=1;exitY=0.5;exitDx=0;exitDy=0;fillColor=#dae8fc;strokeColor=#6c8ebf;" parent="EYtOcgFtx-9UCVevLSyA-1" target="EYtOcgFtx-9UCVevLSyA-5" edge="1">
          <mxGeometry width="50" height="50" relative="1" as="geometry">
            <mxPoint x="278.25" y="455" as="sourcePoint" />
            <mxPoint x="510" y="331.75" as="targetPoint" />
            <Array as="points">
              <mxPoint x="400" y="380" />
              <mxPoint x="380" y="130" />
            </Array>
          </mxGeometry>
        </mxCell>
        <mxCell id="EYtOcgFtx-9UCVevLSyA-4" value="pod.a/32" style="edgeLabel;html=1;align=center;verticalAlign=middle;resizable=0;points=[];labelBackgroundColor=none;" parent="EYtOcgFtx-9UCVevLSyA-3" vertex="1" connectable="0">
          <mxGeometry x="0.0667" relative="1" as="geometry">
            <mxPoint x="-32" y="183" as="offset" />
          </mxGeometry>
        </mxCell>
        <mxCell id="EYtOcgFtx-9UCVevLSyA-5" value="tun" style="rounded=0;whiteSpace=wrap;html=1;fillColor=#ffe6cc;strokeColor=#d79b00;" parent="EYtOcgFtx-9UCVevLSyA-1" vertex="1">
          <mxGeometry x="584.64" y="44.629999999999995" width="80" height="26" as="geometry" />
        </mxCell>
        <mxCell id="EYtOcgFtx-9UCVevLSyA-6" value="&lt;div&gt;loop&lt;br&gt;pod / 32&lt;br&gt;&lt;/div&gt;" style="rounded=0;whiteSpace=wrap;html=1;fillColor=#f5f5f5;strokeColor=#666666;fontColor=#333333;" parent="EYtOcgFtx-9UCVevLSyA-1" vertex="1">
          <mxGeometry x="584.64" y="75.38" width="80" height="26" as="geometry" />
        </mxCell>
        <mxCell id="EYtOcgFtx-9UCVevLSyA-7" value="" style="curved=1;endArrow=classic;html=1;entryX=1;entryY=0.5;entryDx=0;entryDy=0;exitX=0;exitY=0.5;exitDx=0;exitDy=0;" parent="EYtOcgFtx-9UCVevLSyA-1" source="EYtOcgFtx-9UCVevLSyA-9" edge="1">
          <mxGeometry width="50" height="50" relative="1" as="geometry">
            <mxPoint x="430" y="316.1875" as="sourcePoint" />
            <mxPoint x="294.1300000000001" y="290" as="targetPoint" />
            <Array as="points">
              <mxPoint x="310" y="130" />
              <mxPoint x="350" y="250" />
            </Array>
          </mxGeometry>
        </mxCell>
        <mxCell id="EYtOcgFtx-9UCVevLSyA-8" value="0.0.0.0/0" style="edgeLabel;html=1;align=center;verticalAlign=middle;resizable=0;points=[];labelBackgroundColor=none;rotation=-20;" parent="EYtOcgFtx-9UCVevLSyA-7" vertex="1" connectable="0">
          <mxGeometry x="-0.3003" y="-15" relative="1" as="geometry">
            <mxPoint x="102" y="-30" as="offset" />
          </mxGeometry>
        </mxCell>
        <mxCell id="EYtOcgFtx-9UCVevLSyA-9" value="FIB" style="rhombus;whiteSpace=wrap;html=1;" parent="EYtOcgFtx-9UCVevLSyA-1" vertex="1">
          <mxGeometry x="470" y="43" width="48.25" height="50" as="geometry" />
        </mxCell>
        <object label="memif" id="3DgwjzeW_syC33P_axAH-7">
          <mxCell parent="0" visible="0" />
        </object>
        <mxCell id="3DgwjzeW_syC33P_axAH-8" value="&lt;div&gt;Pod VRF (tun)&lt;br&gt;&lt;/div&gt;" style="rounded=1;whiteSpace=wrap;html=1;verticalAlign=top;align=center;fillColor=#d5e8d4;strokeColor=#82b366;" parent="3DgwjzeW_syC33P_axAH-7" vertex="1">
          <mxGeometry x="360" y="230" width="160" height="120" as="geometry" />
        </mxCell>
        <mxCell id="3DgwjzeW_syC33P_axAH-9" value="" style="curved=1;endArrow=classic;html=1;entryX=0;entryY=0.5;entryDx=0;entryDy=0;exitX=1;exitY=0.5;exitDx=0;exitDy=0;" parent="3DgwjzeW_syC33P_axAH-7" target="3DgwjzeW_syC33P_axAH-11" edge="1">
          <mxGeometry width="50" height="50" relative="1" as="geometry">
            <mxPoint x="278.25" y="455" as="sourcePoint" />
            <mxPoint x="510" y="331.75" as="targetPoint" />
            <Array as="points">
              <mxPoint x="360" y="360" />
            </Array>
          </mxGeometry>
        </mxCell>
        <mxCell id="3DgwjzeW_syC33P_axAH-10" value="pod/32" style="edgeLabel;html=1;align=center;verticalAlign=middle;resizable=0;points=[];labelBackgroundColor=none;" parent="3DgwjzeW_syC33P_axAH-9" vertex="1" connectable="0">
          <mxGeometry x="0.0667" relative="1" as="geometry">
            <mxPoint x="-73" y="61" as="offset" />
          </mxGeometry>
        </mxCell>
        <mxCell id="3DgwjzeW_syC33P_axAH-11" value="tun" style="rounded=0;whiteSpace=wrap;html=1;fillColor=#ffe6cc;strokeColor=#d79b00;" parent="3DgwjzeW_syC33P_axAH-7" vertex="1">
          <mxGeometry x="490" y="261.63" width="80" height="26" as="geometry" />
        </mxCell>
        <mxCell id="3DgwjzeW_syC33P_axAH-12" value="&lt;div&gt;loop&lt;br&gt;pod / 32&lt;br&gt;&lt;/div&gt;" style="rounded=0;whiteSpace=wrap;html=1;fillColor=#f5f5f5;strokeColor=#666666;fontColor=#333333;" parent="3DgwjzeW_syC33P_axAH-7" vertex="1">
          <mxGeometry x="490" y="316.38" width="80" height="26" as="geometry" />
        </mxCell>
        <mxCell id="3DgwjzeW_syC33P_axAH-13" value="" style="curved=1;endArrow=classic;html=1;entryX=1;entryY=0.5;entryDx=0;entryDy=0;exitX=0;exitY=0.5;exitDx=0;exitDy=0;" parent="3DgwjzeW_syC33P_axAH-7" source="3DgwjzeW_syC33P_axAH-15" edge="1">
          <mxGeometry width="50" height="50" relative="1" as="geometry">
            <mxPoint x="430" y="316.1875" as="sourcePoint" />
            <mxPoint x="294.1300000000001" y="290" as="targetPoint" />
            <Array as="points">
              <mxPoint x="350" y="250" />
            </Array>
          </mxGeometry>
        </mxCell>
        <mxCell id="3DgwjzeW_syC33P_axAH-14" value="0.0.0.0/0" style="edgeLabel;html=1;align=center;verticalAlign=middle;resizable=0;points=[];labelBackgroundColor=none;" parent="3DgwjzeW_syC33P_axAH-13" vertex="1" connectable="0">
          <mxGeometry x="-0.3003" y="-15" relative="1" as="geometry">
            <mxPoint x="-20" y="15" as="offset" />
          </mxGeometry>
        </mxCell>
        <mxCell id="3DgwjzeW_syC33P_axAH-15" value="FIB" style="rhombus;whiteSpace=wrap;html=1;" parent="3DgwjzeW_syC33P_axAH-7" vertex="1">
          <mxGeometry x="380" y="260" width="48.25" height="50" as="geometry" />
        </mxCell>
        <mxCell id="3DgwjzeW_syC33P_axAH-16" value="memif" style="rounded=0;whiteSpace=wrap;html=1;fillColor=#ffe6cc;strokeColor=#d79b00;" parent="3DgwjzeW_syC33P_axAH-7" vertex="1">
          <mxGeometry x="490" y="287.63" width="80" height="26" as="geometry" />
        </mxCell>
        <mxCell id="3DgwjzeW_syC33P_axAH-17" value="" style="curved=1;endArrow=classic;html=1;startArrow=none;entryX=0;entryY=0.5;entryDx=0;entryDy=0;" parent="3DgwjzeW_syC33P_axAH-7" source="3DgwjzeW_syC33P_axAH-18" target="3DgwjzeW_syC33P_axAH-16" edge="1">
          <mxGeometry width="50" height="50" relative="1" as="geometry">
            <mxPoint x="657.5" y="492.25" as="sourcePoint" />
            <mxPoint x="747.5" y="499.25" as="targetPoint" />
            <Array as="points" />
          </mxGeometry>
        </mxCell>
        <mxCell id="3DgwjzeW_syC33P_axAH-18" value="pbl" style="ellipse;whiteSpace=wrap;html=1;aspect=fixed;align=center;verticalAlign=middle;fillColor=#f8cecc;strokeColor=#b85450;" parent="3DgwjzeW_syC33P_axAH-7" vertex="1">
          <mxGeometry x="424.25" y="287.63" width="40" height="40" as="geometry" />
        </mxCell>
        <object label="vcl" id="3DgwjzeW_syC33P_axAH-19">
          <mxCell parent="0" visible="0" />
        </object>
        <mxCell id="3DgwjzeW_syC33P_axAH-20" value="&lt;div&gt;Pod VRF (tun)&lt;br&gt;&lt;/div&gt;" style="rounded=1;whiteSpace=wrap;html=1;verticalAlign=top;align=center;fillColor=#d5e8d4;strokeColor=#82b366;" parent="3DgwjzeW_syC33P_axAH-19" vertex="1">
          <mxGeometry x="360" y="230" width="160" height="120" as="geometry" />
        </mxCell>
        <mxCell id="3DgwjzeW_syC33P_axAH-21" value="" style="curved=1;endArrow=classic;html=1;entryX=0.5;entryY=0;entryDx=0;entryDy=0;exitX=1;exitY=0.5;exitDx=0;exitDy=0;" parent="3DgwjzeW_syC33P_axAH-19" target="8EK6lXT4clB_M2s-Al92-3" edge="1">
          <mxGeometry width="50" height="50" relative="1" as="geometry">
            <mxPoint x="278.25" y="455" as="sourcePoint" />
            <mxPoint x="510" y="331.75" as="targetPoint" />
            <Array as="points">
              <mxPoint x="380" y="290" />
            </Array>
          </mxGeometry>
        </mxCell>
        <mxCell id="3DgwjzeW_syC33P_axAH-22" value="pod/32" style="edgeLabel;html=1;align=center;verticalAlign=middle;resizable=0;points=[];labelBackgroundColor=none;" parent="3DgwjzeW_syC33P_axAH-21" vertex="1" connectable="0">
          <mxGeometry x="0.0667" relative="1" as="geometry">
            <mxPoint x="-53" y="66" as="offset" />
          </mxGeometry>
        </mxCell>
        <mxCell id="3DgwjzeW_syC33P_axAH-23" value="tun" style="rounded=0;whiteSpace=wrap;html=1;fillColor=#ffe6cc;strokeColor=#d79b00;" parent="3DgwjzeW_syC33P_axAH-19" vertex="1">
          <mxGeometry x="490" y="261.63" width="80" height="26" as="geometry" />
        </mxCell>
        <mxCell id="3DgwjzeW_syC33P_axAH-25" value="" style="curved=1;endArrow=classic;html=1;entryX=1;entryY=0.5;entryDx=0;entryDy=0;exitX=0;exitY=0.5;exitDx=0;exitDy=0;" parent="3DgwjzeW_syC33P_axAH-19" source="3DgwjzeW_syC33P_axAH-27" edge="1">
          <mxGeometry width="50" height="50" relative="1" as="geometry">
            <mxPoint x="430" y="316.1875" as="sourcePoint" />
            <mxPoint x="294.1300000000001" y="290" as="targetPoint" />
            <Array as="points">
              <mxPoint x="350" y="250" />
            </Array>
          </mxGeometry>
        </mxCell>
        <mxCell id="3DgwjzeW_syC33P_axAH-26" value="0.0.0.0/0" style="edgeLabel;html=1;align=center;verticalAlign=middle;resizable=0;points=[];labelBackgroundColor=none;" parent="3DgwjzeW_syC33P_axAH-25" vertex="1" connectable="0">
          <mxGeometry x="-0.3003" y="-15" relative="1" as="geometry">
            <mxPoint x="-20" y="15" as="offset" />
          </mxGeometry>
        </mxCell>
        <mxCell id="3DgwjzeW_syC33P_axAH-27" value="FIB" style="rhombus;whiteSpace=wrap;html=1;" parent="3DgwjzeW_syC33P_axAH-19" vertex="1">
          <mxGeometry x="380" y="260" width="48.25" height="50" as="geometry" />
        </mxCell>
        <mxCell id="8EK6lXT4clB_M2s-Al92-1" value="" style="curved=1;endArrow=classic;html=1;entryX=0;entryY=0.5;entryDx=0;entryDy=0;exitX=0.5;exitY=1;exitDx=0;exitDy=0;" parent="3DgwjzeW_syC33P_axAH-19" source="8EK6lXT4clB_M2s-Al92-3" target="68VcOWyj1M_4Vcmoe_yk-55" edge="1">
          <mxGeometry width="50" height="50" relative="1" as="geometry">
            <mxPoint x="560" y="364.12" as="sourcePoint" />
            <mxPoint x="541.28" y="371.32000000000005" as="targetPoint" />
            <Array as="points">
              <mxPoint x="340" y="480" />
            </Array>
          </mxGeometry>
        </mxCell>
        <mxCell id="8EK6lXT4clB_M2s-Al92-2" value="punt" style="edgeLabel;html=1;align=center;verticalAlign=middle;resizable=0;points=[];" parent="8EK6lXT4clB_M2s-Al92-1" vertex="1" connectable="0">
          <mxGeometry x="-0.2196" y="-29" relative="1" as="geometry">
            <mxPoint x="91" y="-52" as="offset" />
          </mxGeometry>
        </mxCell>
        <mxCell id="8EK6lXT4clB_M2s-Al92-3" value="&lt;div&gt;loop&lt;br&gt;pod/32&lt;br&gt;&lt;/div&gt;" style="rounded=0;whiteSpace=wrap;html=1;fillColor=#ffe6cc;strokeColor=#d79b00;" parent="3DgwjzeW_syC33P_axAH-19" vertex="1">
          <mxGeometry x="400" y="330" width="80" height="26" as="geometry" />
        </mxCell>
        <mxCell id="8EK6lXT4clB_M2s-Al92-4" value="" style="curved=1;endArrow=classic;html=1;entryX=0;entryY=0.5;entryDx=0;entryDy=0;exitX=1;exitY=0.5;exitDx=0;exitDy=0;" parent="3DgwjzeW_syC33P_axAH-19" source="68VcOWyj1M_4Vcmoe_yk-55" target="3DgwjzeW_syC33P_axAH-23" edge="1">
          <mxGeometry width="50" height="50" relative="1" as="geometry">
            <mxPoint x="580" y="315.3799999999999" as="sourcePoint" />
            <mxPoint x="460" y="535" as="targetPoint" />
            <Array as="points">
              <mxPoint x="600" y="440" />
              <mxPoint x="450" y="280" />
            </Array>
          </mxGeometry>
        </mxCell>
        <mxCell id="8EK6lXT4clB_M2s-Al92-5" value="pod/32" style="edgeLabel;html=1;align=center;verticalAlign=middle;resizable=0;points=[];" parent="8EK6lXT4clB_M2s-Al92-4" vertex="1" connectable="0">
          <mxGeometry x="-0.2196" y="-29" relative="1" as="geometry">
            <mxPoint x="20" y="50" as="offset" />
          </mxGeometry>
        </mxCell>
        <mxCell id="FvVIVJKmBdhrTQ8kZsbY-1" value="VCL &lt;br&gt;sock" style="rounded=0;whiteSpace=wrap;html=1;fillColor=#ffe6cc;strokeColor=#d79b00;" parent="3DgwjzeW_syC33P_axAH-19" vertex="1">
          <mxGeometry x="559" y="310" width="41" height="36" as="geometry" />
        </mxCell>
        <mxCell id="FvVIVJKmBdhrTQ8kZsbY-2" value="" style="endArrow=oval;html=1;rounded=0;entryX=0;entryY=0.5;entryDx=0;entryDy=0;exitX=1;exitY=0.5;exitDx=0;exitDy=0;endFill=1;startArrow=oval;startFill=1;dashed=1;" parent="3DgwjzeW_syC33P_axAH-19" source="8EK6lXT4clB_M2s-Al92-3" target="FvVIVJKmBdhrTQ8kZsbY-1" edge="1">
          <mxGeometry width="50" height="50" relative="1" as="geometry">
            <mxPoint x="360" y="370" as="sourcePoint" />
            <mxPoint x="410" y="320" as="targetPoint" />
          </mxGeometry>
        </mxCell>
      </root>
    </mxGraphModel>
  </diagram>
  <diagram id="oeCJQuWtQ3xXDlwAr52O" name="simple_diagram">
    <mxGraphModel dx="1426" dy="875" grid="1" gridSize="10" guides="1" tooltips="1" connect="1" arrows="1" fold="1" page="1" pageScale="1" pageWidth="850" pageHeight="1100" math="0" shadow="0">
      <root>
        <mxCell id="0" />
        <mxCell id="1" parent="0" />
        <mxCell id="QHkryKdTkVN3Ys4XLqpD-82" value="ipv4-VRF:0&lt;br&gt;&lt;br&gt;" style="rounded=1;whiteSpace=wrap;html=1;align=center;verticalAlign=top;fillColor=#d5e8d4;strokeColor=#82b366;" parent="1" vertex="1">
          <mxGeometry x="190" y="390" width="160" height="170" as="geometry" />
        </mxCell>
        <mxCell id="QHkryKdTkVN3Ys4XLqpD-83" value="Uplink" style="rounded=0;whiteSpace=wrap;html=1;fillColor=#ffe6cc;strokeColor=#d79b00;rotation=0;" parent="1" vertex="1">
          <mxGeometry x="280" y="540" width="55" height="32" as="geometry" />
        </mxCell>
        <mxCell id="QHkryKdTkVN3Ys4XLqpD-86" value="calico-pods-ip4" style="rounded=1;whiteSpace=wrap;html=1;align=center;verticalAlign=top;fillColor=#d5e8d4;strokeColor=#82b366;" parent="1" vertex="1">
          <mxGeometry x="190" y="265" width="160" height="120" as="geometry" />
        </mxCell>
        <mxCell id="QHkryKdTkVN3Ys4XLqpD-91" value="IPIP0" style="rounded=0;whiteSpace=wrap;html=1;fillColor=#ffe6cc;strokeColor=#d79b00;" parent="1" vertex="1">
          <mxGeometry x="205" y="541" width="49.99" height="30" as="geometry" />
        </mxCell>
        <mxCell id="QHkryKdTkVN3Ys4XLqpD-185" style="edgeStyle=orthogonalEdgeStyle;rounded=0;orthogonalLoop=1;jettySize=auto;html=1;exitX=0.5;exitY=1;exitDx=0;exitDy=0;entryX=0.5;entryY=0;entryDx=0;entryDy=0;" parent="1" source="QHkryKdTkVN3Ys4XLqpD-94" target="QHkryKdTkVN3Ys4XLqpD-83" edge="1">
          <mxGeometry relative="1" as="geometry">
            <Array as="points">
              <mxPoint x="270" y="510" />
              <mxPoint x="307" y="510" />
            </Array>
          </mxGeometry>
        </mxCell>
        <mxCell id="hNAxYpyCT_fmYmy5SMfn-5" value="default" style="edgeLabel;html=1;align=center;verticalAlign=middle;resizable=0;points=[];labelBackgroundColor=none;" parent="QHkryKdTkVN3Ys4XLqpD-185" vertex="1" connectable="0">
          <mxGeometry x="-0.627" y="1" relative="1" as="geometry">
            <mxPoint x="19" y="-12" as="offset" />
          </mxGeometry>
        </mxCell>
        <mxCell id="hNAxYpyCT_fmYmy5SMfn-8" style="edgeStyle=orthogonalEdgeStyle;rounded=0;orthogonalLoop=1;jettySize=auto;html=1;exitX=0;exitY=1;exitDx=0;exitDy=0;entryX=0.75;entryY=0;entryDx=0;entryDy=0;" parent="1" source="QHkryKdTkVN3Ys4XLqpD-94" target="QHkryKdTkVN3Ys4XLqpD-91" edge="1">
          <mxGeometry relative="1" as="geometry" />
        </mxCell>
        <mxCell id="hNAxYpyCT_fmYmy5SMfn-9" value="podC/24" style="edgeLabel;html=1;align=center;verticalAlign=middle;resizable=0;points=[];labelBackgroundColor=none;" parent="hNAxYpyCT_fmYmy5SMfn-8" vertex="1" connectable="0">
          <mxGeometry x="-0.5732" relative="1" as="geometry">
            <mxPoint x="-12" y="-1" as="offset" />
          </mxGeometry>
        </mxCell>
        <mxCell id="QHkryKdTkVN3Ys4XLqpD-94" value="FIB" style="rhombus;whiteSpace=wrap;html=1;" parent="1" vertex="1">
          <mxGeometry x="245.87" y="430" width="48.25" height="50" as="geometry" />
        </mxCell>
        <mxCell id="hNAxYpyCT_fmYmy5SMfn-1" style="edgeStyle=orthogonalEdgeStyle;rounded=0;orthogonalLoop=1;jettySize=auto;html=1;exitX=0;exitY=0.5;exitDx=0;exitDy=0;entryX=0.5;entryY=0;entryDx=0;entryDy=0;" parent="1" source="QHkryKdTkVN3Ys4XLqpD-95" target="QHkryKdTkVN3Ys4XLqpD-91" edge="1">
          <mxGeometry relative="1" as="geometry">
            <Array as="points">
              <mxPoint x="210" y="335" />
              <mxPoint x="210" y="510" />
              <mxPoint x="230" y="510" />
            </Array>
          </mxGeometry>
        </mxCell>
        <mxCell id="hNAxYpyCT_fmYmy5SMfn-4" value="nodes/24" style="edgeLabel;html=1;align=center;verticalAlign=middle;resizable=0;points=[];labelBackgroundColor=none;" parent="hNAxYpyCT_fmYmy5SMfn-1" vertex="1" connectable="0">
          <mxGeometry x="-0.5376" y="1" relative="1" as="geometry">
            <mxPoint x="9" y="-35" as="offset" />
          </mxGeometry>
        </mxCell>
        <mxCell id="hNAxYpyCT_fmYmy5SMfn-2" style="edgeStyle=orthogonalEdgeStyle;rounded=0;orthogonalLoop=1;jettySize=auto;html=1;exitX=0.5;exitY=1;exitDx=0;exitDy=0;entryX=0.5;entryY=0;entryDx=0;entryDy=0;" parent="1" source="QHkryKdTkVN3Ys4XLqpD-95" target="QHkryKdTkVN3Ys4XLqpD-82" edge="1">
          <mxGeometry relative="1" as="geometry" />
        </mxCell>
        <mxCell id="hNAxYpyCT_fmYmy5SMfn-3" value="default" style="edgeLabel;html=1;align=center;verticalAlign=middle;resizable=0;points=[];labelBackgroundColor=none;" parent="hNAxYpyCT_fmYmy5SMfn-2" vertex="1" connectable="0">
          <mxGeometry x="-0.292" y="-2" relative="1" as="geometry">
            <mxPoint x="22" as="offset" />
          </mxGeometry>
        </mxCell>
        <mxCell id="QHkryKdTkVN3Ys4XLqpD-95" value="FIB" style="rhombus;whiteSpace=wrap;html=1;" parent="1" vertex="1">
          <mxGeometry x="245.88" y="310" width="48.25" height="50" as="geometry" />
        </mxCell>
        <mxCell id="QHkryKdTkVN3Ys4XLqpD-107" value="Linux pod netns" style="rounded=1;whiteSpace=wrap;html=1;verticalAlign=bottom;fillColor=#dae8fc;strokeColor=#6c8ebf;" parent="1" vertex="1">
          <mxGeometry x="550" y="371" width="145.36" height="80" as="geometry" />
        </mxCell>
        <mxCell id="QHkryKdTkVN3Ys4XLqpD-108" value="FIB" style="rhombus;whiteSpace=wrap;html=1;" parent="1" vertex="1">
          <mxGeometry x="625.3599999999999" y="381" width="48.25" height="50" as="geometry" />
        </mxCell>
        <mxCell id="QHkryKdTkVN3Ys4XLqpD-109" value="" style="curved=1;endArrow=classic;html=1;exitX=0;exitY=0.5;exitDx=0;exitDy=0;entryX=1;entryY=0.5;entryDx=0;entryDy=0;" parent="1" source="QHkryKdTkVN3Ys4XLqpD-108" edge="1">
          <mxGeometry width="50" height="50" relative="1" as="geometry">
            <mxPoint x="140.0050000000001" y="211" as="sourcePoint" />
            <mxPoint x="569.9999999999999" y="395.6299999999999" as="targetPoint" />
            <Array as="points" />
          </mxGeometry>
        </mxCell>
        <mxCell id="QHkryKdTkVN3Ys4XLqpD-110" value="0.0.0.0/0" style="edgeLabel;html=1;align=center;verticalAlign=middle;resizable=0;points=[];labelBackgroundColor=none;" parent="QHkryKdTkVN3Ys4XLqpD-109" vertex="1" connectable="0">
          <mxGeometry x="0.1952" y="-3" relative="1" as="geometry">
            <mxPoint x="12" y="-7" as="offset" />
          </mxGeometry>
        </mxCell>
        <mxCell id="QHkryKdTkVN3Ys4XLqpD-153" value="&lt;div&gt;Pod VRF&lt;br&gt;&lt;/div&gt;" style="rounded=1;whiteSpace=wrap;html=1;verticalAlign=bottom;align=center;fillColor=#d5e8d4;strokeColor=#82b366;" parent="1" vertex="1">
          <mxGeometry x="390" y="372" width="110" height="78" as="geometry" />
        </mxCell>
        <mxCell id="QHkryKdTkVN3Ys4XLqpD-156" value="tun" style="rounded=0;whiteSpace=wrap;html=1;fillColor=#ffe6cc;strokeColor=#d79b00;" parent="1" vertex="1">
          <mxGeometry x="489.9999999999999" y="382.63" width="80" height="26" as="geometry" />
        </mxCell>
        <mxCell id="QHkryKdTkVN3Ys4XLqpD-157" value="&lt;div&gt;loop&lt;br&gt;pod / 32&lt;br&gt;&lt;/div&gt;" style="rounded=0;whiteSpace=wrap;html=1;fillColor=#f5f5f5;strokeColor=#666666;fontColor=#333333;" parent="1" vertex="1">
          <mxGeometry x="489.9999999999999" y="413.38" width="80" height="26" as="geometry" />
        </mxCell>
        <mxCell id="QHkryKdTkVN3Ys4XLqpD-183" style="edgeStyle=orthogonalEdgeStyle;rounded=0;orthogonalLoop=1;jettySize=auto;html=1;exitX=0;exitY=0.5;exitDx=0;exitDy=0;entryX=1;entryY=0.5;entryDx=0;entryDy=0;fillColor=#e1d5e7;strokeColor=#9673a6;" parent="1" source="QHkryKdTkVN3Ys4XLqpD-160" target="QHkryKdTkVN3Ys4XLqpD-86" edge="1">
          <mxGeometry relative="1" as="geometry">
            <Array as="points">
              <mxPoint x="390" y="405" />
              <mxPoint x="390" y="325" />
            </Array>
          </mxGeometry>
        </mxCell>
        <mxCell id="QHkryKdTkVN3Ys4XLqpD-187" value="default" style="edgeLabel;html=1;align=center;verticalAlign=middle;resizable=0;points=[];labelBackgroundColor=none;" parent="QHkryKdTkVN3Ys4XLqpD-183" vertex="1" connectable="0">
          <mxGeometry x="-0.8147" relative="1" as="geometry">
            <mxPoint x="9" y="-23" as="offset" />
          </mxGeometry>
        </mxCell>
        <mxCell id="QHkryKdTkVN3Ys4XLqpD-172" value="Linux pod netns" style="rounded=1;whiteSpace=wrap;html=1;verticalAlign=bottom;fillColor=#dae8fc;strokeColor=#6c8ebf;" parent="1" vertex="1">
          <mxGeometry x="552.3199999999999" y="461" width="145.36" height="80" as="geometry" />
        </mxCell>
        <mxCell id="QHkryKdTkVN3Ys4XLqpD-173" value="FIB" style="rhombus;whiteSpace=wrap;html=1;" parent="1" vertex="1">
          <mxGeometry x="627.6799999999998" y="471" width="48.25" height="50" as="geometry" />
        </mxCell>
        <mxCell id="QHkryKdTkVN3Ys4XLqpD-174" value="" style="curved=1;endArrow=classic;html=1;exitX=0;exitY=0.5;exitDx=0;exitDy=0;entryX=1;entryY=0.5;entryDx=0;entryDy=0;" parent="1" source="QHkryKdTkVN3Ys4XLqpD-173" edge="1">
          <mxGeometry width="50" height="50" relative="1" as="geometry">
            <mxPoint x="142.3250000000001" y="301" as="sourcePoint" />
            <mxPoint x="572.3199999999999" y="485.6299999999999" as="targetPoint" />
            <Array as="points" />
          </mxGeometry>
        </mxCell>
        <mxCell id="QHkryKdTkVN3Ys4XLqpD-175" value="0.0.0.0/0" style="edgeLabel;html=1;align=center;verticalAlign=middle;resizable=0;points=[];labelBackgroundColor=none;" parent="QHkryKdTkVN3Ys4XLqpD-174" vertex="1" connectable="0">
          <mxGeometry x="0.1952" y="-3" relative="1" as="geometry">
            <mxPoint x="12" y="-7" as="offset" />
          </mxGeometry>
        </mxCell>
        <mxCell id="QHkryKdTkVN3Ys4XLqpD-176" value="&lt;div&gt;Pod VRF&lt;br&gt;&lt;/div&gt;" style="rounded=1;whiteSpace=wrap;html=1;verticalAlign=bottom;align=center;fillColor=#d5e8d4;strokeColor=#82b366;" parent="1" vertex="1">
          <mxGeometry x="390" y="462" width="110" height="78" as="geometry" />
        </mxCell>
        <mxCell id="QHkryKdTkVN3Ys4XLqpD-177" value="tun" style="rounded=0;whiteSpace=wrap;html=1;fillColor=#ffe6cc;strokeColor=#d79b00;" parent="1" vertex="1">
          <mxGeometry x="492.31999999999994" y="472.63" width="80" height="26" as="geometry" />
        </mxCell>
        <mxCell id="QHkryKdTkVN3Ys4XLqpD-178" value="&lt;div&gt;loop&lt;br&gt;pod / 32&lt;br&gt;&lt;/div&gt;" style="rounded=0;whiteSpace=wrap;html=1;fillColor=#f5f5f5;strokeColor=#666666;fontColor=#333333;" parent="1" vertex="1">
          <mxGeometry x="492.31999999999994" y="503.38" width="80" height="26" as="geometry" />
        </mxCell>
        <mxCell id="QHkryKdTkVN3Ys4XLqpD-184" style="edgeStyle=orthogonalEdgeStyle;rounded=0;orthogonalLoop=1;jettySize=auto;html=1;exitX=0;exitY=0.5;exitDx=0;exitDy=0;entryX=1;entryY=0.75;entryDx=0;entryDy=0;fillColor=#e1d5e7;strokeColor=#9673a6;" parent="1" source="QHkryKdTkVN3Ys4XLqpD-179" target="QHkryKdTkVN3Ys4XLqpD-86" edge="1">
          <mxGeometry relative="1" as="geometry">
            <Array as="points">
              <mxPoint x="380" y="495" />
              <mxPoint x="380" y="355" />
            </Array>
          </mxGeometry>
        </mxCell>
        <mxCell id="QHkryKdTkVN3Ys4XLqpD-186" value="default" style="edgeLabel;html=1;align=center;verticalAlign=middle;resizable=0;points=[];labelBackgroundColor=none;" parent="QHkryKdTkVN3Ys4XLqpD-184" vertex="1" connectable="0">
          <mxGeometry x="-0.7496" y="1" relative="1" as="geometry">
            <mxPoint x="1" y="10" as="offset" />
          </mxGeometry>
        </mxCell>
        <mxCell id="QHkryKdTkVN3Ys4XLqpD-179" value="FIB" style="rhombus;whiteSpace=wrap;html=1;" parent="1" vertex="1">
          <mxGeometry x="399.43" y="470" width="48.25" height="50" as="geometry" />
        </mxCell>
        <mxCell id="QHkryKdTkVN3Ys4XLqpD-180" style="edgeStyle=orthogonalEdgeStyle;rounded=0;orthogonalLoop=1;jettySize=auto;html=1;exitX=1;exitY=0;exitDx=0;exitDy=0;entryX=0;entryY=0.5;entryDx=0;entryDy=0;" parent="1" source="QHkryKdTkVN3Ys4XLqpD-94" target="QHkryKdTkVN3Ys4XLqpD-156" edge="1">
          <mxGeometry relative="1" as="geometry">
            <Array as="points">
              <mxPoint x="470" y="443" />
              <mxPoint x="470" y="396" />
            </Array>
          </mxGeometry>
        </mxCell>
        <mxCell id="hNAxYpyCT_fmYmy5SMfn-6" value="podA/32" style="edgeLabel;html=1;align=center;verticalAlign=middle;resizable=0;points=[];labelBackgroundColor=none;" parent="QHkryKdTkVN3Ys4XLqpD-180" vertex="1" connectable="0">
          <mxGeometry x="-0.818" y="1" relative="1" as="geometry">
            <mxPoint x="8" y="-11" as="offset" />
          </mxGeometry>
        </mxCell>
        <mxCell id="QHkryKdTkVN3Ys4XLqpD-182" style="edgeStyle=orthogonalEdgeStyle;rounded=0;orthogonalLoop=1;jettySize=auto;html=1;exitX=1;exitY=0.5;exitDx=0;exitDy=0;entryX=0;entryY=0.5;entryDx=0;entryDy=0;" parent="1" source="QHkryKdTkVN3Ys4XLqpD-94" target="QHkryKdTkVN3Ys4XLqpD-177" edge="1">
          <mxGeometry relative="1" as="geometry">
            <Array as="points">
              <mxPoint x="470" y="455" />
              <mxPoint x="470" y="486" />
            </Array>
          </mxGeometry>
        </mxCell>
        <mxCell id="hNAxYpyCT_fmYmy5SMfn-7" value="podB/32" style="edgeLabel;html=1;align=center;verticalAlign=middle;resizable=0;points=[];labelBackgroundColor=none;" parent="QHkryKdTkVN3Ys4XLqpD-182" vertex="1" connectable="0">
          <mxGeometry x="-0.9405" relative="1" as="geometry">
            <mxPoint x="17" y="7" as="offset" />
          </mxGeometry>
        </mxCell>
        <mxCell id="QHkryKdTkVN3Ys4XLqpD-160" value="FIB" style="rhombus;whiteSpace=wrap;html=1;" parent="1" vertex="1">
          <mxGeometry x="399.43" y="380" width="48.25" height="50" as="geometry" />
        </mxCell>
      </root>
    </mxGraphModel>
  </diagram>
  <diagram id="_1KvFL7Otj9kU9aFClS2" name="packet-flow">
    <mxGraphModel dx="2276" dy="875" grid="1" gridSize="10" guides="1" tooltips="1" connect="1" arrows="1" fold="1" page="1" pageScale="1" pageWidth="850" pageHeight="1100" math="0" shadow="0">
      <root>
        <mxCell id="0" />
        <mxCell id="1" parent="0" />
        <mxCell id="gxixcAet_fk85PYic_eX-9" style="edgeStyle=orthogonalEdgeStyle;rounded=0;orthogonalLoop=1;jettySize=auto;html=1;exitX=1;exitY=0.5;exitDx=0;exitDy=0;" edge="1" parent="1" source="gxixcAet_fk85PYic_eX-1" target="gxixcAet_fk85PYic_eX-2">
          <mxGeometry relative="1" as="geometry" />
        </mxCell>
        <mxCell id="gxixcAet_fk85PYic_eX-1" value="Interface RX" style="rounded=1;whiteSpace=wrap;html=1;fillColor=#e1d5e7;strokeColor=#9673a6;" vertex="1" parent="1">
          <mxGeometry x="20" y="230" width="80" height="60" as="geometry" />
        </mxCell>
        <mxCell id="gxixcAet_fk85PYic_eX-2" value="Interface TX" style="rounded=1;whiteSpace=wrap;html=1;fillColor=#e1d5e7;strokeColor=#9673a6;" vertex="1" parent="1">
          <mxGeometry x="660" y="230" width="70" height="60" as="geometry" />
        </mxCell>
        <mxCell id="gxixcAet_fk85PYic_eX-4" value="Capo rules&lt;div&gt;RX&lt;/div&gt;" style="rounded=1;whiteSpace=wrap;html=1;fillColor=#d5e8d4;strokeColor=#82b366;" vertex="1" parent="1">
          <mxGeometry x="210" y="230" width="70" height="60" as="geometry" />
        </mxCell>
        <mxCell id="gxixcAet_fk85PYic_eX-5" value="Capo rules&lt;div&gt;TX&lt;/div&gt;" style="rounded=1;whiteSpace=wrap;html=1;fillColor=#d5e8d4;strokeColor=#82b366;" vertex="1" parent="1">
          <mxGeometry x="460" y="230" width="80" height="60" as="geometry" />
        </mxCell>
        <mxCell id="gxixcAet_fk85PYic_eX-6" value="CNAT&lt;div&gt;destination NAT&lt;/div&gt;" style="rounded=1;whiteSpace=wrap;html=1;fillColor=#fff2cc;strokeColor=#d6b656;" vertex="1" parent="1">
          <mxGeometry x="110" y="230" width="90" height="60" as="geometry" />
        </mxCell>
        <mxCell id="gxixcAet_fk85PYic_eX-7" value="CNAT&lt;div&gt;source NAT&lt;/div&gt;" style="rounded=1;whiteSpace=wrap;html=1;fillColor=#fff2cc;strokeColor=#d6b656;" vertex="1" parent="1">
          <mxGeometry x="550" y="230" width="90" height="60" as="geometry" />
        </mxCell>
        <mxCell id="gxixcAet_fk85PYic_eX-32" style="edgeStyle=orthogonalEdgeStyle;rounded=0;orthogonalLoop=1;jettySize=auto;html=1;exitX=0.5;exitY=0;exitDx=0;exitDy=0;entryX=1;entryY=0.5;entryDx=0;entryDy=0;" edge="1" parent="1" source="gxixcAet_fk85PYic_eX-8" target="gxixcAet_fk85PYic_eX-31">
          <mxGeometry relative="1" as="geometry" />
        </mxCell>
        <mxCell id="gxixcAet_fk85PYic_eX-8" value="ROUTING" style="rounded=1;whiteSpace=wrap;html=1;fillColor=#f8cecc;strokeColor=#b85450;" vertex="1" parent="1">
          <mxGeometry x="339" y="230" width="70" height="60" as="geometry" />
        </mxCell>
        <mxCell id="gxixcAet_fk85PYic_eX-10" value="Forward FLOW&lt;div&gt;(new or existing)&lt;/div&gt;" style="text;html=1;align=center;verticalAlign=middle;whiteSpace=wrap;rounded=0;" vertex="1" parent="1">
          <mxGeometry x="-90" y="245" width="100" height="30" as="geometry" />
        </mxCell>
        <mxCell id="gxixcAet_fk85PYic_eX-11" value="Return FLOW&lt;div&gt;(existing)&lt;/div&gt;" style="text;html=1;align=center;verticalAlign=middle;whiteSpace=wrap;rounded=0;" vertex="1" parent="1">
          <mxGeometry x="-90" y="392" width="100" height="30" as="geometry" />
        </mxCell>
        <mxCell id="gxixcAet_fk85PYic_eX-13" style="edgeStyle=orthogonalEdgeStyle;rounded=0;orthogonalLoop=1;jettySize=auto;html=1;exitX=1;exitY=0.5;exitDx=0;exitDy=0;" edge="1" parent="1" source="gxixcAet_fk85PYic_eX-14" target="gxixcAet_fk85PYic_eX-15">
          <mxGeometry relative="1" as="geometry" />
        </mxCell>
        <mxCell id="gxixcAet_fk85PYic_eX-14" value="Interface RX" style="rounded=1;whiteSpace=wrap;html=1;fillColor=#e1d5e7;strokeColor=#9673a6;" vertex="1" parent="1">
          <mxGeometry x="20" y="377" width="80" height="60" as="geometry" />
        </mxCell>
        <mxCell id="gxixcAet_fk85PYic_eX-15" value="Interface TX" style="rounded=1;whiteSpace=wrap;html=1;fillColor=#e1d5e7;strokeColor=#9673a6;" vertex="1" parent="1">
          <mxGeometry x="660" y="377" width="70" height="60" as="geometry" />
        </mxCell>
        <mxCell id="gxixcAet_fk85PYic_eX-16" value="Capo rules&lt;div&gt;(existing flow)&lt;/div&gt;" style="rounded=1;whiteSpace=wrap;html=1;fillColor=#d5e8d4;strokeColor=#82b366;" vertex="1" parent="1">
          <mxGeometry x="210" y="377" width="90" height="60" as="geometry" />
        </mxCell>
        <mxCell id="gxixcAet_fk85PYic_eX-17" value="Capo rules&lt;div&gt;(existing flow)&lt;/div&gt;" style="rounded=1;whiteSpace=wrap;html=1;fillColor=#d5e8d4;strokeColor=#82b366;" vertex="1" parent="1">
          <mxGeometry x="460" y="377" width="80" height="60" as="geometry" />
        </mxCell>
        <mxCell id="gxixcAet_fk85PYic_eX-18" value="CNAT&lt;div&gt;&lt;div&gt;source NAT&lt;/div&gt;&lt;/div&gt;" style="rounded=1;whiteSpace=wrap;html=1;fillColor=#fff2cc;strokeColor=#d6b656;" vertex="1" parent="1">
          <mxGeometry x="110" y="377" width="90" height="60" as="geometry" />
        </mxCell>
        <mxCell id="gxixcAet_fk85PYic_eX-19" value="CNAT&lt;div&gt;destination NAT&lt;/div&gt;" style="rounded=1;whiteSpace=wrap;html=1;fillColor=#fff2cc;strokeColor=#d6b656;" vertex="1" parent="1">
          <mxGeometry x="550" y="377" width="90" height="60" as="geometry" />
        </mxCell>
        <mxCell id="gxixcAet_fk85PYic_eX-20" value="ROUTING" style="rounded=1;whiteSpace=wrap;html=1;fillColor=#f8cecc;strokeColor=#b85450;" vertex="1" parent="1">
          <mxGeometry x="339" y="377" width="70" height="60" as="geometry" />
        </mxCell>
        <mxCell id="gxixcAet_fk85PYic_eX-25" style="edgeStyle=orthogonalEdgeStyle;rounded=0;orthogonalLoop=1;jettySize=auto;html=1;exitX=0;exitY=0;exitDx=0;exitDy=35;exitPerimeter=0;entryX=0.5;entryY=0;entryDx=0;entryDy=0;fillColor=#f5f5f5;strokeColor=#666666;" edge="1" parent="1" source="gxixcAet_fk85PYic_eX-21" target="gxixcAet_fk85PYic_eX-18">
          <mxGeometry relative="1" as="geometry" />
        </mxCell>
        <mxCell id="gxixcAet_fk85PYic_eX-26" style="edgeStyle=orthogonalEdgeStyle;rounded=0;orthogonalLoop=1;jettySize=auto;html=1;exitX=1;exitY=0;exitDx=0;exitDy=35;exitPerimeter=0;entryX=0.5;entryY=0;entryDx=0;entryDy=0;fillColor=#f5f5f5;strokeColor=#666666;" edge="1" parent="1" source="gxixcAet_fk85PYic_eX-21" target="gxixcAet_fk85PYic_eX-19">
          <mxGeometry relative="1" as="geometry" />
        </mxCell>
        <mxCell id="gxixcAet_fk85PYic_eX-29" style="edgeStyle=orthogonalEdgeStyle;rounded=0;orthogonalLoop=1;jettySize=auto;html=1;exitX=0;exitY=1;exitDx=0;exitDy=-5;exitPerimeter=0;entryX=0.5;entryY=0;entryDx=0;entryDy=0;fillColor=#f5f5f5;strokeColor=#666666;" edge="1" parent="1" source="gxixcAet_fk85PYic_eX-21" target="gxixcAet_fk85PYic_eX-16">
          <mxGeometry relative="1" as="geometry" />
        </mxCell>
        <mxCell id="gxixcAet_fk85PYic_eX-30" style="edgeStyle=orthogonalEdgeStyle;rounded=0;orthogonalLoop=1;jettySize=auto;html=1;exitX=1;exitY=1;exitDx=0;exitDy=-5;exitPerimeter=0;entryX=0.5;entryY=0;entryDx=0;entryDy=0;fillColor=#f5f5f5;strokeColor=#666666;" edge="1" parent="1" source="gxixcAet_fk85PYic_eX-21" target="gxixcAet_fk85PYic_eX-17">
          <mxGeometry relative="1" as="geometry" />
        </mxCell>
        <mxCell id="gxixcAet_fk85PYic_eX-21" value="state" style="shape=cylinder3;whiteSpace=wrap;html=1;boundedLbl=1;backgroundOutline=1;size=5;" vertex="1" parent="1">
          <mxGeometry x="344.5" y="310" width="59" height="50" as="geometry" />
        </mxCell>
        <mxCell id="gxixcAet_fk85PYic_eX-24" style="edgeStyle=orthogonalEdgeStyle;rounded=0;orthogonalLoop=1;jettySize=auto;html=1;exitX=0.5;exitY=1;exitDx=0;exitDy=0;entryX=0;entryY=0;entryDx=0;entryDy=15;entryPerimeter=0;fillColor=#f5f5f5;strokeColor=#666666;" edge="1" parent="1" source="gxixcAet_fk85PYic_eX-6" target="gxixcAet_fk85PYic_eX-21">
          <mxGeometry relative="1" as="geometry" />
        </mxCell>
        <mxCell id="gxixcAet_fk85PYic_eX-27" style="edgeStyle=orthogonalEdgeStyle;rounded=0;orthogonalLoop=1;jettySize=auto;html=1;exitX=0.5;exitY=1;exitDx=0;exitDy=0;entryX=1;entryY=0;entryDx=0;entryDy=15;entryPerimeter=0;fillColor=#f5f5f5;strokeColor=#666666;" edge="1" parent="1" source="gxixcAet_fk85PYic_eX-7" target="gxixcAet_fk85PYic_eX-21">
          <mxGeometry relative="1" as="geometry" />
        </mxCell>
        <mxCell id="gxixcAet_fk85PYic_eX-33" style="edgeStyle=orthogonalEdgeStyle;rounded=0;orthogonalLoop=1;jettySize=auto;html=1;exitX=0;exitY=0.5;exitDx=0;exitDy=0;entryX=0;entryY=0.25;entryDx=0;entryDy=0;" edge="1" parent="1" source="gxixcAet_fk85PYic_eX-31" target="gxixcAet_fk85PYic_eX-6">
          <mxGeometry relative="1" as="geometry" />
        </mxCell>
        <mxCell id="gxixcAet_fk85PYic_eX-31" value="IPIP" style="rounded=1;whiteSpace=wrap;html=1;fillColor=#f8cecc;strokeColor=#b85450;" vertex="1" parent="1">
          <mxGeometry x="269" y="150" width="70" height="60" as="geometry" />
        </mxCell>
      </root>
    </mxGraphModel>
  </diagram>
</mxfile>
